<svg xmlns="http://www.w3.org/2000/svg" viewBox="0 0 359.738 130"><defs><style>.a{fill:none;stroke:#000;stroke-width:22px;}.b{fill:#f5f51b;}.b,.c{stroke:rgba(0,0,0,0);}</style></defs><g transform="translate(-593.37 -319.5)"><path d="M140.238-47.37V-59.13a11.381,11.381,0,0,0-3.522-8.376A11.453,11.453,0,0,0,128.368-71H116.5q-10.484,0-11.759,11.87H92.868Q95.586-82.87,116.5-82.87h23.741a22.652,22.652,0,0,1,16.668,7.017,22.924,22.924,0,0,1,6.961,16.724V0h-23.63V-11.87Q138.852,0,128.368,0H116.5A22.741,22.741,0,0,1,99.829-6.961,22.741,22.741,0,0,1,92.868-23.63v-.111a22.7,22.7,0,0,1,6.989-16.668A22.769,22.769,0,0,1,116.5-47.37Zm0,11.87h-11.87a11.471,11.471,0,0,0-8.376,3.467,11.271,11.271,0,0,0-3.495,8.293v.111a11.344,11.344,0,0,0,3.467,8.265,11.4,11.4,0,0,0,8.4,3.495,11.4,11.4,0,0,0,8.4-3.495,11.344,11.344,0,0,0,3.467-8.265Z" transform="translate(582 448.5)"/><line class="a" y2="129" transform="translate(768.5 319.5)"/><path class="b" d="M23.309,166.083a23.971,23.971,0,0,0,9.108-1.706,23.247,23.247,0,0,0,7.607-5.119L56.892,142.47a23.269,23.269,0,0,0,5.172-7.609,24.876,24.876,0,0,0,0-18.2,23.27,23.27,0,0,0-5.172-7.609L31.669,83.95a23.67,23.67,0,0,0-7.685-5.191,23.917,23.917,0,0,0-9.145-1.731h-.058a26.037,26.037,0,0,0-4.937.468V97.66a11.542,11.542,0,0,1,5.035,3l25.223,25.1a11.845,11.845,0,0,1-.08,16.708,11.52,11.52,0,0,1-8.4,3.471H31.57a11.475,11.475,0,0,1-8.335-3.392L9.845,129.222v32.867a22.212,22.212,0,0,0,6.222,2.98,25.229,25.229,0,0,0,7.13,1.013Z" transform="translate(773.84 282)"/><path class="c" d="M11.87,143V36.5H35.5V143ZM69.238,60.13H92.979a22.652,22.652,0,0,1,16.668,7.017,22.924,22.924,0,0,1,6.961,16.724v35.5A23.866,23.866,0,0,1,92.979,143H69.238a23.769,23.769,0,0,1-23.63-23.63V83.87A23.816,23.816,0,0,1,69.238,60.13Zm0,23.741v35.5a11.865,11.865,0,0,0,20.274,8.265,11.344,11.344,0,0,0,3.467-8.265V83.87a11.845,11.845,0,0,0-20.246-8.376A11.425,11.425,0,0,0,69.238,83.87Z" transform="translate(836 306)"/><path class="c" d="M11.87,0V-106.5H35.5V-71q.721-5.991,3.689-8.93t8.182-2.94h11.87a22.652,22.652,0,0,1,16.668,7.017A22.924,22.924,0,0,1,82.87-59.13v35.5A22.8,22.8,0,0,1,75.909-7.017,22.652,22.652,0,0,1,59.241,0ZM35.5-11.87H47.37a11.4,11.4,0,0,0,8.4-3.495,11.344,11.344,0,0,0,3.467-8.265v-35.5a11.381,11.381,0,0,0-3.522-8.376A11.453,11.453,0,0,0,47.37-71a11.425,11.425,0,0,0-8.376,3.495A11.425,11.425,0,0,0,35.5-59.13Z" transform="translate(582 448)"/></g></svg>