<svg xmlns="http://www.w3.org/2000/svg" viewBox="1367 271 512 512"><defs><style>.a{fill:#161719;}.b{fill:#f5f51b;stroke:rgba(0,0,0,0);}.c{fill:#fff;}</style></defs><g transform="translate(193 123)"><rect class="a" width="512" height="512" rx="51" transform="translate(1174 148)"/><g transform="translate(1306.692 205.461)"><path class="b" d="M41.443,274.12a73.786,73.786,0,0,0,28.034-5.252,71.556,71.556,0,0,0,23.416-15.756l51.922-51.675a71.625,71.625,0,0,0,15.921-23.42,76.571,76.571,0,0,0,0-56.019,71.625,71.625,0,0,0-15.921-23.422L67.176,21.307A72.86,72.86,0,0,0,43.521,5.327,73.618,73.618,0,0,0,15.373,0H15.2A80.145,80.145,0,0,0,0,1.44V63.508A35.529,35.529,0,0,1,15.5,72.74l77.64,77.267a36.46,36.46,0,0,1-.245,51.431,35.46,35.46,0,0,1-25.845,10.685h-.176a35.322,35.322,0,0,1-25.656-10.441L0,160.66V261.828A68.37,68.37,0,0,0,19.151,271,77.662,77.662,0,0,0,41.1,274.119Z" transform="translate(80.602 121.673)"/><rect class="c" width="67.719" height="397.077"/></g></g></svg>